<svg version="1.2" xmlns="http://www.w3.org/2000/svg" viewBox="0 0 193 62" width="193" height="62">
	<title>bazar-svg</title>
	<style>
		.s0 { fill: #000000 } 
	</style>
	<g id="Layer">
		<path id="Layer" fill-rule="evenodd" class="s0" d="m50.9 36.3c-0.8 9.8-12 10.4-12 10.4h-28.9v-0.6h4.4c0 0 1.1-0.8 1.1-2.9v-34c0 0-0.3-3.1-3.2-3.6h-3.8v-0.7h22.9c0 0 18.3-0.7 18.5 9.2-0.3 8.6-8.9 10-8.9 10 0 0 10.8 2.4 9.9 12.2zm-3.9-4.4h-4.5q0.1 0.4 0.1 0.8h4.5q-0.1-0.4-0.1-0.8zm-0.3-1.2h-4.5q0.1 0.1 0.1 0.2 0 0.1 0.1 0.2 0 0.1 0 0.2 0 0.1 0.1 0.2h4.4q-0.1-0.4-0.2-0.8zm-0.5-1.1h-4.4q0 0.1 0.1 0.2 0 0.1 0.1 0.2 0 0.1 0 0.2 0.1 0.1 0.1 0.2h4.5q-0.2-0.4-0.4-0.8zm-0.6-1.2h-4.5q0.1 0.1 0.2 0.2 0 0.1 0.1 0.2 0 0.1 0.1 0.2 0 0.1 0.1 0.2h4.4q-0.2-0.4-0.4-0.8zm-6.3 14.2q0.6-0.9 1.1-1.9h-1.6q-0.4 1.1-0.9 1.9zm-6.7 3.6c0 0 6.7-1.1 6.6-11 0-8.7-6.7-10.4-6.7-10.4h-6v21.4zm8.1-6.3q0.1-0.3 0.2-0.7 0.1-0.3 0.2-0.6 0.1-0.4 0.2-0.7 0-0.3 0.1-0.7h-1.8q-0.2 1.5-0.6 2.7zm-6.8-15.4l0.8 0.7h0.6l-0.7-0.7zm-0.2-0.5zm0 0h0.5l0.6-0.5h-0.5zm5.3-9.4q0 0.3-0.1 0.6 0 0.3 0 0.6 0 0.3-0.1 0.7h1.3q0-0.2 0-0.3 0.1-0.1 0.1-0.3 0-0.1 0-0.3 0-0.1 0.1-0.2 0-0.8 0-1.5h-1.3q0 0.3 0 0.7zm1.2-1.4q0-0.3 0-0.5-0.1-0.3-0.1-0.5-0.1-0.3-0.2-0.5-0.1-0.3-0.2-0.5h-1.1q0 0.2 0.1 0.5 0 0.2 0.1 0.5 0 0.2 0.1 0.5 0 0.2 0 0.5zm-0.8-2.8q-0.5-0.8-1-1.5h-1q0.1 0.1 0.3 0.3 0.1 0.2 0.2 0.4 0.1 0.2 0.2 0.4 0.1 0.2 0.2 0.4zm-1.4 8.9h1.1q0.1-0.2 0.2-0.5 0.2-0.2 0.3-0.5 0.1-0.3 0.1-0.5 0.1-0.3 0.2-0.6h-1.3q-0.2 1.1-0.6 2.1zm-0.4 0.8q-0.1 0.2-0.2 0.3-0.1 0.2-0.2 0.4-0.1 0.1-0.2 0.3-0.2 0.2-0.3 0.3h1q0.1-0.1 0.3-0.3 0.1-0.1 0.2-0.3 0.1-0.2 0.3-0.4 0.1-0.1 0.2-0.3zm-11.5 3.4h6.2c0 0 5.7-1 5.7-9.3-0.2-7.5-5.8-8.5-5.8-8.5h-6.1zm9.9 1.1h3.7c-0.4-0.1-0.9-0.3-0.9-0.3 0 0 0.2-0.2 0.5-0.4h-3.5q-0.4 0.2-0.7 0.3 0.3 0.2 0.9 0.4zm-0.5 0.9q0.2 0.1 0.3 0.3 0.2 0.1 0.4 0.3 0.2 0.2 0.3 0.3 0.2 0.2 0.4 0.4h0.9c-0.6-0.6-1.1-1.1-1.3-1.3zm1.9 1.9q0.2 0.3 0.3 0.5 0.1 0.2 0.3 0.4 0.1 0.3 0.2 0.5 0.1 0.2 0.3 0.5h1.2q-0.7-1.1-1.3-1.9zm1.4 2.7q0.1 0.3 0.1 0.6 0.1 0.3 0.2 0.6 0.1 0.3 0.1 0.6 0.1 0.4 0.1 0.7h1.8q-0.4-1.3-1-2.5zm2.6 6.4q0-0.5 0.1-1 0-1-0.1-2h-1.9q0.1 0.7 0.1 1.5 0 0.8-0.1 1.5zm3.1-9.2h-4.4q0.1 0.1 0.2 0.2 0.1 0.1 0.2 0.2 0.1 0.1 0.1 0.2 0.1 0.1 0.2 0.2h4.4q-0.3-0.4-0.7-0.8zm-1.4-1.1h-4.3q0.1 0.1 0.3 0.2 0.1 0.1 0.2 0.1 0.1 0.1 0.2 0.2 0.1 0.1 0.2 0.2h4.4q-0.5-0.4-1-0.7zm-2.2-1.2h-4q0.2 0.1 0.4 0.2 0.1 0.1 0.3 0.2 0.2 0.1 0.3 0.2 0.2 0.1 0.4 0.2h4.2q-0.8-0.5-1.6-0.8zm0.6-2.3h-3.7q-0.7 0.5-1.2 0.8h3.6q0.6-0.3 1.3-0.8zm1.6-1.1h-4q-0.1 0.1-0.2 0.2-0.1 0.1-0.2 0.2-0.1 0.1-0.2 0.1-0.1 0.1-0.2 0.2h3.8q0.5-0.3 1-0.7zm0.6-0.6q0.1-0.1 0.1-0.2 0.1-0.1 0.2-0.2 0.1-0.1 0.2-0.2h-4.2q-0.2 0.4-0.5 0.8h4q0.1-0.1 0.2-0.2zm0.9-1.2q0.1-0.1 0.1-0.2 0.1 0 0.2-0.1 0-0.1 0.1-0.2h-4.3q-0.2 0.4-0.4 0.7h4.2q0-0.1 0.1-0.2zm0.7-1.1q0-0.1 0.1-0.2 0-0.1 0-0.2 0.1-0.1 0.1-0.2h-4.4q-0.1 0.4-0.2 0.8h4.3q0-0.1 0.1-0.2zm0.4-1.2q0.1-0.1 0.1-0.2 0-0.1 0-0.2 0.1-0.1 0.1-0.1h-4.5q-0.1 0.3-0.1 0.7h4.4q0-0.1 0-0.2zm0.3-1.1q0-0.1 0-0.2 0.1-0.1 0.1-0.2 0-0.1 0-0.2h-4.6q0 0.4 0 0.8h4.5q0-0.1 0-0.2zm0.1-1.8h-4.6q0 0.4 0 0.8h4.6q0-0.2 0.1-0.3 0-0.2-0.1-0.5zm0-1.1h-4.6q0 0.4 0 0.8h4.6q0-0.4 0-0.8zm-0.2-1.2h-4.6q0 0.1 0 0.2 0.1 0.1 0.1 0.2 0 0.1 0 0.2 0 0.1 0 0.2h4.6q0-0.4-0.1-0.8zm-0.5-1.1h-4.4q0.1 0.1 0.1 0.2 0 0.1 0 0.2 0.1 0.1 0.1 0.2 0 0.1 0 0.2h4.6q-0.2-0.4-0.4-0.8zm-0.6-1.2h-4.2q0 0.1 0.1 0.2 0 0.1 0.1 0.2 0 0.1 0 0.2 0.1 0.1 0.1 0.2h4.4q-0.3-0.4-0.5-0.8zm-1.1-1.1h-3.8q0.1 0.1 0.2 0.2 0 0.1 0.1 0.2 0 0.1 0.1 0.2 0 0 0.1 0.1h4.1q-0.4-0.4-0.8-0.7zm-1.7-1.2h-3.1q0.1 0.1 0.2 0.2 0.1 0.1 0.2 0.2 0.1 0.1 0.2 0.2 0.1 0.1 0.1 0.2h3.6q-0.6-0.4-1.2-0.8zm-4.6-1.1q0.1 0.1 0.2 0.2 0.2 0 0.3 0.1 0.2 0.1 0.3 0.2 0.1 0.1 0.3 0.2h2.7c-0.9-0.3-1.7-0.6-2.5-0.7zm-0.4 0.8h-0.8q0.1 0.1 0.3 0.2 0.1 0.1 0.2 0.2 0.1 0.1 0.2 0.2 0.1 0.1 0.2 0.3h0.8q-0.4-0.5-0.9-0.9zm-2-1.2q0.3 0.2 0.6 0.5h0.6q-0.3-0.3-0.7-0.5-0.5 0-0.5 0zm-19.9 0.3h1.2c-0.3-0.4-0.5-0.7-0.8-0.9h-1.3c0 0 0.4 0.2 0.9 0.9zm0.5 1.1q0 0.2 0.1 0.4 0.1 0.2 0.1 0.4 0.1 0.2 0.1 0.4h1.4q0-0.1 0-0.2c-0.1-0.5-0.3-1-0.6-1.4h-1.3q0.1 0.1 0.2 0.4zm1.7 4.4q0-1.5 0-2.4h-1.3q0.1 0 0.1 0.1v2.3zm-1.3 0.8v2.5h1.3q0-1.4 0-2.5zm0.3 32.9q0.1-0.1 0.2-0.3 0-0.1 0.1-0.3 0-0.1 0.1-0.3h-1.1c-0.3 1-0.6 1.2-0.6 1.2h1.2q0.1-0.2 0.1-0.3zm0.9-3.8h-1.2v0.8q-0.1 0.8-0.2 1.4h1.2c0.1-0.5 0.2-0.8 0.2-0.8zm0-3.2h-1.2v2.5h1.2zm0-3.3h-1.3v2.5h1.3zm0-3.3h-1.3v2.5h1.3zm0-3.2h-1.3v2.4h1.3zm0-3.2h-1.3v2.4h1.3zm0-3.2h-1.3v2.4h1.3zm0-3.2h-1.3v2.5h1.3zm0-0.8v-2.5h-1.3v2.5zm4.7 27.3h-4.2q-0.1 0.1-0.2 0.2h4.4zm0-1.2h-3.7q-0.1 0.4-0.3 0.8h4zm0-1.2h-3.3q0 0.1 0 0.2-0.1 0.1-0.1 0.2 0 0.1 0 0.2-0.1 0.1-0.1 0.2h3.5zm0-0.4v-0.7h-3.2v0.4q0 0.2 0 0.3zm0-1.9h-3.2v0.8h3.2zm0-1.2h-3.2v0.8h3.2zm0-1.2h-3.2v0.8h3.2zm0-1.2h-3.2v0.8h3.2zm0-1.1h-3.2v0.7h3.2zm0-1.1h-3.2v0.8h3.2zm0-1.2h-3.2v0.8h3.2zm0-1.2h-3.2v0.8h3.2zm0-1.2h-3.2v0.8h3.2zm0-1.2h-3.2v0.8h3.2zm0-1.1h-3.2v0.7h3.2zm0-1.1h-3.2v0.7h3.2zm0-1.1h-3.2v0.8h3.2zm0-1.2h-3.2v0.8h3.2zm0-1.2h-3.2v0.8h3.2zm0-1.2h-3.2v0.8h3.2zm0-1.1h-3.2v0.7h3.2zm0-1.1h-3.2v0.7h3.2zm0-1.1h-3.2v0.8h3.2zm0-1.2h-3.2v0.8h3.2zm0-1.2h-3.2v0.8h3.2zm0-1.2h-3.2v0.8h3.2zm0-1.1h-3.2v0.7h3.2zm0-1.1h-3.2v0.7h3.2zm0-1.1h-3.2v0.8h3.2zm0-1.2h-3.2v0.8h3.2zm0-1.2h-3.2v0.8h3.2zm0-1.2h-3.2v0.8h3.2zm0-1.2h-3.3q0.1 0.3 0.1 0.3v0.5h3.2zm0-1.1h-3.7q0.2 0.4 0.3 0.7h3.4zm0-0.4v-0.7h-4.4q0.1 0.1 0.2 0.2 0 0.1 0.1 0.2 0 0.1 0.1 0.2 0 0 0.1 0.1zm0-1.1v-0.6h-5.1q0.1 0.1 0.1 0.2 0.1 0 0.1 0.1 0.1 0.1 0.2 0.1 0 0.1 0.1 0.2zm14.1 15.9q-0.4 0.4-0.9 0.8h0.9q0.1-0.1 0.3-0.2 0.1-0.1 0.2-0.2 0.1-0.1 0.3-0.2 0.1-0.1 0.2-0.2zm1.3 21.2q-0.4 0.6-0.8 1.1h1q0.5-0.5 1-1.1zm-0.5 1.8h-0.9q-0.3 0.3-0.7 0.6h0.8q0.4-0.3 0.8-0.6zm3.1 0.7h-2.6q-0.3 0.2-0.5 0.4l2-0.1c0 0 0.4-0.1 1.1-0.3zm2.2-1.2h-3.5q-0.5 0.5-0.9 0.8h3.1q0.6-0.3 1.3-0.8zm1.3-1.1h-3.8q-0.4 0.4-0.7 0.8h3.7q0.4-0.4 0.8-0.8zm1-1.2h-4.1q-0.2 0.4-0.5 0.8h4q0.3-0.4 0.6-0.8zm0.4-0.5q0.1-0.1 0.1-0.2 0.1-0.1 0.2-0.2 0-0.1 0.1-0.2h-4.2q-0.2 0.4-0.4 0.7h4.1q0.1 0 0.1-0.1zm0.9-1.8h-4.3q-0.1 0.4-0.3 0.8h4.3q0.2-0.4 0.3-0.8zm0.5-1.1h-4.4q-0.1 0.4-0.2 0.7h4.3q0.1-0.3 0.3-0.7zm0.3-1.2h-4.4q-0.1 0.4-0.2 0.8h4.4q0.1-0.4 0.2-0.8zm0.2-1.1h-4.4q-0.1 0.4-0.1 0.7h4.4q0-0.3 0.1-0.7zm0.2-1.2h-4.5q0 0.4-0.1 0.8h4.5q0-0.1 0-0.2 0-0.1 0-0.2 0-0.1 0-0.2 0-0.1 0-0.2zm0.1-1.1h-4.4q0 0.4 0 0.7h4.4q0-0.3 0-0.7zm0-0.4q0-0.4 0-0.8h-4.4q0 0.4 0 0.8zm34.3 8.4c0.5 0-4.7 4.9-4.7 4.9 0 0-2.7-1.8-3.3-2.4-0.6-0.6-2-2.3-2.5-3.5-0.5-1.3-0.1-3.3-0.5-3.6-0.4-0.3-0.6-0.5-1.3-0.6-0.7-0.1-7.8-0.2-8.3 0.2-0.5 0.4-3.5 4.3-3.5 4.3 0 0 3.3-0.2 5.2 0 1.8 0.1 3 0.9 3.3 1.3 0.3 0.4-4 4.1-4 4.1 0 0-5.1-2.4-8.4-0.4-1.5 0.8-1.2 0.2-1.2-0.1 0-0.4 2-2.6 2.6-3.1 0.5-0.5 15.6-19.5 15.6-19.5 0 0-3.6-1.8-10.2 0.7 4-3 4.5-3.7 8.6-4.8 4.6-0.7 7.2 0.4 7.2 0.4l-0.8 13.2c0 0 2.1 1.1 4.8-0.1 2.8-1.3-3.8 2.7-3.8 2.7 0 0-1.2 0.8-0.4 2.2 0.8 1.3 2.6 3.1 3.9 3.6 1.2 0.6 1.2 0.5 1.7 0.5zm-10.5-17.1l-6.2 7.4 5.9 0.4zm18-5.2h28.1v0.4l-21.4 25.9h9.8c0 0 3.2-2.2 4.8-4.9 1.7-2.6 2.5-5.2 2.5-5.2h2.5v10.7h-30.1l21.7-26.1h-6.6c0 0-3.1 1.7-5.2 4.1-2 2.4-3.7 6.3-3.7 6.3h-2.4zm24 0.8l-20.9 25.5h1.8l20.8-25.5zm-6.6 25.4h1c0.2-0.1 1.6-1.1 2.5-2 1.1-1.1 2.6-3.7 2.6-3.8l0.1 1.3v4.5h0.8v-9.5c0 0-1.2 2.9-2.8 5.3-1.5 2.4-4.2 4.2-4.2 4.2zm4.2 0h-0.1l-0.3-1.3q-0.1 0.1-0.1 0.2c-0.5 0.4-0.8 0.8-1 1.1zm-2.9-25.4l-21.2 25.5h1.7l21-25.5zm-1.9 5.2l-2 2.5 0.8 1.3 2.1-2.6zm1.5 0.6l2-2.5-0.8-1.4-2.1 2.7zm-4 2.5l-2.1 2.5 0.9 1.3 2-2.5zm-2.5 3.1l-2.4 2.9 0.9 1.2 2.3-2.8zm-2.8 3.5l-2.1 2.5 0.7 1.5 2.3-2.8zm-2.6 3.2l-2.3 2.8 0.8 1.3 2.2-2.6zm16.7 4.1l-1.2 1.3c0.1 1 0.3 1.5 0.4 1.9h0.7zm0.1-22.3h-1.9l-1.1 1.3 0.8 1.4 2.2-2.7zm-20.3 24.8l1.6-1.9-0.9-1.3-2.6 3.2zm-2.3-16.1c0 0 1.4-3 3.1-4.7 1.6-1.7 4.3-4.1 4.3-4.1l-1.5-0.1c-0.2 0.2-1.6 1.2-2.5 2.1-1.1 1.1-2.5 3.7-2.6 3.7l-0.1-1.2v-4.7h-0.7zm1.4-5.7c0 0 0.6-0.6 1.2-1.3l-1.2-0.6zm0-2.6l1.5 0.9q0.2-0.2 0.3-0.3 0.2-0.2 0.3-0.3 0.2-0.1 0.3-0.3 0.1-0.2 0.2-0.3 0.1-0.2 0.2-0.3l-2.8-0.1zm35.3 24.1c0-1.1 2.5-3.7 5.7-7.2 2.2-2.4 1.9-2.3 3.1-3.5 1.2-1.2 1.9-1.7 2.6-1.8 0.4-0.1 1-0.3 1.5 0 0.4 0.4 0.5 1 0.4 1.4l-0.6 0.9-4 4.7c-1.9 1.9-3 3.3-4.5 4.6-1.5 1.3-1.8 1.6-2.6 1.8-0.7 0.2-1.6 0.5-1.6-0.9z"/>
		<path id="Layer" fill-rule="evenodd" class="s0" d="m119.8 24.2h31.8v31.7h-31.8zm4.4 21.5c0.4 0.8 0.8 1.2 2.1 1.4 1.1 0.2 2-0.1 3.1-0.8 1.2-0.8 1.7-1.4 3.7-3 0 0 0.1 2.1 0.5 2.6 0.3 0.4 0.8 1.4 3 1.2 1.5-0.1 4.9-1.5 6.9-3 2-1.4 5-4.8 5-4.8l0.5-0.6-0.4-0.2-0.5 0.4c-2.7 2.4-4.8 4.3-6.2 5.3-1.9 1.4-4.7 2.2-5.3 2.1-2.1-0.2-0.1-1.7-0.1-1.7l1.1-1.2 9.9-11.1-5.7-0.1-1.7 1.5c-0.2-0.6-0.4-0.9-0.7-1.2-0.3-0.3-0.7-0.5-1.7-0.7-2.2-0.3-5.9 0.5-9.1 3-2.8 2.2-4.3 4.6-4.8 7.2-0.4 2 0.1 3.1 0.4 3.7zm38.6-8.2l0.6 0.5-0.1 0.2-0.6-0.2h-0.2l-0.8 0.2 0.1-0.3 0.5-0.4zm-0.2-1.3l0.9 0.6-0.4 0.2-0.6-0.2-0.9 0.2v-0.3l0.7-0.5zm-1.6 6.4l0.1 0.3c-0.4 0.1-0.7-0.1-1-0.3l0.2-0.3c0.3 0.2 0.5 0.4 0.7 0.3zm1.4-3.7l0.7 0.6-0.7-0.2-0.7 0.2zm-1.9 4.3v0.3c-0.2 0-0.8 0-1.2-0.6l0.3-0.1c0.2 0.4 0.7 0.4 0.9 0.4zm3.6 0.3v-0.3c0.5-0.1 0.7-0.2 0.9-0.4l0.3 0.1c-0.1 0.1-0.5 0.5-1.2 0.6zm1 0.7c0.8-0.2 1.1-0.3 1.5-0.8l0.2 0.2c-0.4 0.5-0.8 0.7-1.6 0.9zm-2.2-9.4l0.8 0.8-0.2 0.3-0.9-0.4-0.4 0.1-1 0.4v-0.4l0.7-0.8zm1.5 8.8c0.8-0.1 1.1-0.3 1.4-0.6l0.2 0.2c-0.3 0.3-0.8 0.6-1.5 0.7zm1.3 1.2c0.6-0.1 1.5-0.5 2-1.2l0.3 0.2c-0.7 0.9-1.7 1.2-2.2 1.3zm-1.8-12.6c0 0.8-0.2 1.1-0.8 1.4-0.5 0.4-1.9 0.4-2.3-1.2 1 0.9 1.3 0.9 2 0.5 0.8-0.4 0.7-1.6 0.5-2-0.2-0.3 0.6 0.4 0.6 1.3zm-1.6 7.8l0.6 0.4-1.2 0.1zm12.3-17.1h-19.1v-0.4h19.1zm-2.7-1.4h-16.4v-0.5h16.4z"/>
		<path id="Layer" fill-rule="evenodd" class="s0" d="m160.5 43.7v0.3c-0.4 0-1.5 0-2-0.9l0.3-0.2c0.4 0.8 1.3 0.8 1.7 0.8zm14.7-11.8c0 0.4-0.3 0.7-0.5 0.7-0.3 0-0.6-0.3-0.6-0.7 0-0.3 0.3-0.6 0.6-0.6 0.2 0 0.5 0.3 0.5 0.6zm-11.6-4.8h-3.3v-0.2h3.4zm10.4 0.7h3v0.2h-2.9zm-14.4 16.3v0.3c-0.5 0-1.1-0.2-1.8-0.9l0.3-0.2c0.5 0.6 1 0.8 1.5 0.8zm-0.6 0.6v0.3c-1.1-0.1-1.6-0.3-2.3-1.3l0.2-0.2c0.7 0.9 1.1 1.1 2.1 1.2zm4.9-18.8h-3.8v-0.1h3.9zm-1 2h-2v-0.2h2zm-1.1 4.5q-0.2-0.2-0.3-0.5 0.1-0.3 0.3-0.5 0.2-0.2 0.5-0.2 0.2 0 0.5 0.2 0.2 0.2 0.2 0.5 0 0.3-0.2 0.5-0.3 0.2-0.5 0.2-0.3 0-0.5-0.2zm18 11.4l0.2 0.3c-0.4 0.3-1.1 0.9-2 0.9v-0.3c0.8 0 1.5-0.6 1.8-0.9zm-3.4 0l-0.1-0.3c0.4-0.1 0.9 0 1.2-0.5l0.1 0.3c0 0 0 0.6-1.2 0.5zm1.8-4h-3.9v-0.2h3.9z"/>
		<path id="Layer" fill-rule="evenodd" class="s0" d="m176.9 44.3h-0.1v-0.3h0.1c0.6 0 0.8 0 1.3-0.7l0.2 0.3c-0.6 0.6-0.8 0.7-1.5 0.7zm-0.7-1.8c0.4-0.1 0.4-0.1 0.7-0.3l0.2 0.2c-0.4 0.3-0.5 0.3-0.9 0.4zm1.7-1.7h-3.2v-0.3h3.2zm-1.1 2.5l-0.5 0.2-0.1-0.3 0.5-0.2c0.4 0 0.5-0.1 0.7-0.3l0.2 0.3c-0.3 0.2-0.5 0.3-0.8 0.3z"/>
		<path id="Layer" fill-rule="evenodd" class="s0" d="m182.3 46.3c-1.2 0.9-3.8 0.9-5.4 0.5-1.5-0.4-2.9-1.3-3.7-2.2-0.8-0.9-1-1.8-1-2.6-0.1-0.8-0.1-2.8-0.6-3.9-0.5-1-1.3-1.5-2-1.5-1.4-0.1-1.8 0.7-1.9 1.1-0.3 0.7-0.5 2 0.1 2.4 0.6 0.4 1.3 0 2.1 0.7 0.9 0.7 1.4 1.6 1.2 3.1-0.1 0.9-0.6 1.7-1.4 2.4-0.8 0.7-1.6 0.8-2.5 0.7-0.9-0.1-2.2-1-2.7-1.5-0.6-0.5-0.7-0.5-1.1-0.3-0.4 0.1-0.6 0.7-1.3 1.1-0.7 0.4-0.9 0.7-2.1 0.7-0.9 0.1-1.8-0.4-2.1-0.9-0.4-0.5-0.2-0.4-0.9-0.8-0.8-0.4-1.9-1.6-2.1-2.7-0.2-1.1 0.1-1.3 0.5-1.7 0.4-0.5 1.5-0.7 1.8-0.6 0.4 0 0.3 0.3 0.6-0.1 0.4-0.3 1.3-2.2 0.7-3.2-0.5-1-0.7-0.6-1.2-1-0.4-0.4-1.1-0.9-0.8-2.1 0.4-1.7 2.3-1.6 2.3-1.6v-5.9l-0.4-0.5h-1.7l-1.6-1.1v-4.6c0 0 17.1-0.1 17.2 0 1.5 0.3 3.1 0.7 5 2.5 1.8 1.9 3.1 4.1 3 6.9 0 2.8-1.9 4.5-1.8 4.5 0.1 0 1.2 1 1.6 1.4 0.5 0.5 1.7 1.8 1.8 3.6 0.1 1.1 0.5 1.2 0.6 1.3q0.2 0.1 0.3 0.2 0.1 0 0.2 0.1 0.1 0.1 0.2 0.2 0.1 0.1 0.2 0.2c0.6 0.7 0.7 1.1 0.8 1.6 0.3 1.6-0.7 2.7-1.9 3.6zm-26.7-3.9c0.4 0.3 1 0.4 1.6 0.1 0.8-0.5 1.6-1.2 2-2.1 0.5-0.8 1-2.7 0.9-4.5-0.1-1.7-0.9-3.2-2-2.8-1.1 0.4-1.5 1.4-1.1 1.9 0.7 1 1.3 0.4 1.3 0.4-0.5 0-1.1-0.6-0.7-1.3 0.5-0.8 0.9-0.4 1.2-0.2 0.2 0.2 0.6 1.5 0.6 2.2-0.1 0.7-0.3 2.9-0.8 3.8-0.5 0.8-1 1.6-1.7 1.9-0.4 0.3-0.7 0.4-0.9 0-0.3-0.3 0.3-0.7 0.3-0.7 0 0-0.6-0.2-0.8 0.2-0.2 0.3-0.2 0.9 0.1 1.1zm24.3 0.3c-0.3-0.5-0.3-1.9-0.3-1.9v-2.7c0 0 0-1.4-0.6-2.5-0.6-1.4-1.7-2.3-2.4-2.5q-0.1 0-0.1-0.1 0 0 0 0-0.1 0-0.1 0 0 0 0-0.1c-0.2 0.4-0.4 0.6-0.7 0.8-1.8 0.8-2.6-1.2-2.4-1.1 0.3 0.1 1.2 0.8 2.1 0.4 0.9-0.5 0.5-1.7 0.5-2.1-0.1-0.5 0.4 0.2 0.6 0.9q0 0.2 0 0.4c0.1 0 0.9-0.2 1.5-1.7 0.6-1.6 0.9-3.6-0.7-6.1-1.1-1.7-3.7-3.7-5.5-3.8h-16.5v3.9h3.7v8c0 0 1.2 0.7 1.4 2.3 0.3 2 0.1 3.7-0.6 5.2-0.8 1.6-1.9 2.6-2.8 2.9-0.9 0.2-1.4 0.1-1.4 0.1 0 0 0.7 2.3 2.3 2.6 1.7 0.3 2-0.4 2.9-1.1 0.8-0.6 1.5-2.1 1.6-2.3 0.1-0.3 0.4 1.7 1.7 2.6 0.8 0.5 2.1 0.9 2.9 0.5 1.4-0.6 1.9-1.8 2-2 0.1-0.3-0.9-0.1-1.9-0.6-0.9-0.4-2-1.5-2.4-2.7-0.5-1.1-0.5-2.5-0.4-3.1 0.1-0.6 0.7-2.3 1-2.5 0.2-0.2-0.7-0.1-0.6-0.5 0.1-0.3 0.3-0.3 0.6-0.3h6.9c0 0 0.3-0.1 0.3 0.3 0 0.4-0.3 0.3-0.3 0.3h-4.4v0.4c0 0 2.7-0.1 3.5 0.5q0.1 0 0.1 0.1 0.1 0 0.2 0.1 0 0.1 0.1 0.1 0 0.1 0.1 0.1v-0.6h5.9v0.6h-5.9c0.7 1 0.7 2.4 0.7 2.4v4.6c0 0 0.6 1.7 2 2.4 1.5 0.7 2.9 1 4.5 0.5 1.7-0.5 2.1-1.2 2.4-1.4 0.3-0.3-1-0.3-1.5-1.3zm-12-7.3c-0.4-0.6-1.2-0.9-2-0.5-0.9 0.4-1.1 1.7-1.1 3.3 0 1.6 0.9 2.9 1.5 3.6 0.7 0.8 1.9 0.9 2.4 0.8 0.5-0.1 0.5-0.3 0.6-0.6 0.1-0.5-0.5-0.7-0.8-0.7q0 0-0.1 0c0 0 0 0 0.1 0 0.3 0.1 0.5 0.5 0.2 0.8-0.3 0.3-1.2-0.1-1.9-1-0.8-0.9-1.4-2.2-1.4-3.7 0-1.5 0.5-2.1 1-2.2 0.9-0.2 0.9 0.5 0.9 0.9 0 0.3-0.3 0.4-0.7 0.2 0 0 0.3 0.5 0.9 0.3 0.5-0.2 0.7-0.7 0.4-1.2zm14.5 6.6c0-0.7-0.4-1.3-1-1.3q0 0-0.1 0 0 0-0.1 0 0 0-0.1 0 0 0.1-0.1 0.1l-0.1-0.2-0.2-1.1c-0.2 0.4-0.2 1-0.2 1.3q0 0 0 0.1 0.1 0 0.1 0.1 0 0 0 0.1 0 0 0 0.1-0.2 0.3-0.2 0.8c0 0.7 0.4 1.3 1 1.3 0.6 0 1-0.6 1-1.3z"/>
		<path id="Layer" fill-rule="evenodd" class="s0" d="m164.7 42.5v0.3c0 0-0.2 0.3-0.8 0.2 0-0.2 0-0.2 0-0.3 0.4 0.1 0.8-0.2 0.8-0.2zm17.4-0.5c0 0.4-0.3 0.7-0.7 0.7-0.3 0-0.6-0.3-0.6-0.7q0-0.1 0-0.1 0-0.1 0-0.1 0-0.1 0-0.1 0 0 0.1-0.1 0 0 0 0c0.2 0.3 0.4 0.4 0.3 0.4 0 0 0.8 0.5 0.1-0.5v-0.2q0 0 0.1 0c0.4 0 0.7 0.3 0.7 0.7zm-3 1.8q-0.7 0.8-1.7 0.9v-0.3q0.8-0.1 1.5-0.8zm-13.6-11.3h6.1v0.6h-6.1zm10.5-8.5h-20.3v-0.4h20.3zm2.4 14.6h-4.4v-0.2h4.4zm-1.6-13.7v0.2h-4.8l-0.1-0.2zm-17.2 0h4.9l-0.1 0.2h-4.8zm12.5 1.8c0 0 0.1 0.4-0.1 2.9-0.7 2.6-2.7 2.1-2.7 2.1h-4.3v-7.2h5c2.2 0.4 2.1 2.2 2.1 2.2zm-0.5 2.2c0-2.6-0.8-2.9-2.6-2.9h-2.4v5.5h2.5c0 0 2.5-0.1 2.5-2.6zm5.4-3h-4.2l-0.1-0.1h4.3zm1.6 11.9h-5v-0.4h5zm-0.1-1.2h-5.7v-0.4h5.7zm-1.3-9.5h-4.2l-0.1-0.2h4.3z"/>
	</g>
</svg>